<svg width="20" height="20" viewBox="0 0 20 20" fill="none" xmlns="http://www.w3.org/2000/svg">
<path fill-rule="evenodd" clip-rule="evenodd" d="M3.00121 2.99925C4.79177 1.20869 7.268 0.0996094 10.0016 0.0996094C12.7351 0.0996094 15.2114 1.20869 17.0019 2.99925C18.7925 4.78981 19.9016 7.26605 19.9016 9.99961C19.9016 12.7332 18.7925 15.2094 17.0019 17C15.2114 18.7905 12.7351 19.8996 10.0016 19.8996C7.268 19.8996 4.79177 18.7905 3.00121 17C1.21064 15.2094 0.101562 12.7332 0.101562 9.99961C0.101562 7.26605 1.21064 4.78981 3.00121 2.99925ZM10.0016 1.89961C7.76456 1.89961 5.74079 2.80525 4.274 4.27204C2.8072 5.73884 1.90156 7.76261 1.90156 9.99961C1.90156 12.2366 2.8072 14.2604 4.274 15.7272C5.74079 17.194 7.76456 18.0996 10.0016 18.0996C12.2386 18.0996 14.2623 17.194 15.7291 15.7272C17.1959 14.2604 18.1016 12.2366 18.1016 9.99961C18.1016 7.76261 17.1959 5.73884 15.7291 4.27204C14.2623 2.80525 12.2386 1.89961 10.0016 1.89961Z" fill="#FFBA00"/>
<path fill-rule="evenodd" clip-rule="evenodd" d="M5.82963 5.82768C6.89634 4.76097 8.37257 4.09961 10.0016 4.09961C11.6306 4.09961 13.1068 4.76097 14.1735 5.82768C15.2402 6.89438 15.9016 8.37062 15.9016 9.99961C15.9016 11.6286 15.2402 13.1048 14.1735 14.1715C13.1068 15.2382 11.6306 15.8996 10.0016 15.8996C8.37257 15.8996 6.89634 15.2382 5.82963 14.1715C4.76293 13.1048 4.10156 11.6286 4.10156 9.99961C4.10156 8.37062 4.76293 6.89438 5.82963 5.82768ZM10.0016 5.89961C8.86913 5.89961 7.84536 6.35753 7.10242 7.10047C6.35949 7.84341 5.90156 8.86718 5.90156 9.99961C5.90156 11.132 6.35949 12.1558 7.10242 12.8987C7.84536 13.6417 8.86913 14.0996 10.0016 14.0996C11.134 14.0996 12.1578 13.6417 12.9007 12.8987C13.6436 12.1558 14.1016 11.132 14.1016 9.99961C14.1016 8.86718 13.6436 7.84341 12.9007 7.10047C12.1578 6.35753 11.134 5.89961 10.0016 5.89961Z" fill="#FFBA00"/>
<path fill-rule="evenodd" clip-rule="evenodd" d="M11.3451 8.65611C11.0022 8.31326 10.526 8.09961 10.0016 8.09961C9.47714 8.09961 9.00091 8.31326 8.65806 8.65611C8.31521 8.99895 8.10156 9.47519 8.10156 9.99961C8.10156 10.524 8.31521 11.0003 8.65806 11.3431C9.00091 11.686 9.47714 11.8996 10.0016 11.8996C10.526 11.8996 11.0022 11.686 11.3451 11.3431C11.6879 11.0003 11.9016 10.524 11.9016 9.99961C11.9016 9.47519 11.6879 8.99895 11.3451 8.65611Z" fill="#FFBA00"/>
</svg>
