<svg width="18" height="20" viewBox="0 0 18 20" fill="none" xmlns="http://www.w3.org/2000/svg">
<path d="M9.00156 0.0996094C11.763 0.0996094 14.0016 2.33819 14.0016 5.09961H14.0557C15.393 5.09961 15.8779 5.23885 16.3668 5.50031C16.8557 5.76177 17.2394 6.14545 17.5009 6.63434C17.7623 7.12323 17.9016 7.60816 17.9016 8.94544V13.834C17.9016 15.923 17.6811 16.6955 17.2671 17.4696C16.8531 18.2437 16.2456 18.8512 15.4716 19.2652C14.6975 19.6791 13.925 19.8996 11.8359 19.8996H6.16721C4.07815 19.8996 3.30563 19.6791 2.53155 19.2652C1.75748 18.8512 1.14998 18.2437 0.736003 17.4696C0.322023 16.6955 0.101562 15.923 0.101562 13.834V8.94544C0.101562 7.60816 0.240801 7.12323 0.502262 6.63434C0.763722 6.14545 1.14741 5.76177 1.63629 5.50031C2.12518 5.23885 2.61011 5.09961 3.94739 5.09961H4.00156C4.00156 2.33819 6.24014 0.0996094 9.00156 0.0996094ZM14.2484 6.90038L3.94739 6.89961C2.9999 6.89961 2.74436 6.94896 2.48517 7.08757C2.30997 7.18127 2.18323 7.30801 2.08953 7.48322C1.95091 7.74241 1.90156 7.99795 1.90156 8.94544V13.834C1.90156 15.469 2.01209 16.0389 2.32327 16.6207C2.56949 17.0811 2.92004 17.4317 3.38043 17.6779C3.96228 17.9891 4.5322 18.0996 6.16721 18.0996H11.8359C13.4709 18.0996 14.0408 17.9891 14.6227 17.6779C15.0831 17.4317 15.4336 17.0811 15.6799 16.6207C15.991 16.0389 16.1016 15.469 16.1016 13.834V8.94544C16.1016 7.99795 16.0522 7.74241 15.9136 7.48322C15.8199 7.30801 15.6932 7.18127 15.518 7.08757C15.2773 6.95886 15.0397 6.90711 14.2484 6.90038ZM12.9476 7.99961C13.1529 7.99961 13.2957 8.03442 13.4179 8.09978C13.5401 8.16515 13.636 8.26107 13.7014 8.38329C13.7668 8.50551 13.8016 8.64824 13.8016 8.8536V8.94562C13.8016 9.15098 13.7668 9.2937 13.7014 9.41593C13.636 9.53815 13.5401 9.63407 13.4179 9.69943C13.2957 9.7648 13.1529 9.79961 12.9476 9.79961H12.8555C12.6502 9.79961 12.5075 9.7648 12.3852 9.69943C12.263 9.63407 12.1671 9.53815 12.1017 9.41593C12.0364 9.2937 12.0016 9.15098 12.0016 8.94562V8.8536C12.0016 8.64824 12.0364 8.50551 12.1017 8.38329C12.1671 8.26107 12.263 8.16515 12.3852 8.09978C12.5075 8.03442 12.6502 7.99961 12.8555 7.99961H12.9476ZM4.94757 7.99961C5.15293 7.99961 5.29566 8.03442 5.41788 8.09978C5.5401 8.16515 5.63602 8.26107 5.70139 8.38329C5.76675 8.50551 5.80156 8.64824 5.80156 8.8536V8.94562C5.80156 9.15098 5.76675 9.2937 5.70139 9.41593C5.63602 9.53815 5.5401 9.63407 5.41788 9.69943C5.29566 9.7648 5.15293 9.79961 4.94757 9.79961H4.85555C4.65019 9.79961 4.50747 9.7648 4.38525 9.69943C4.26302 9.63407 4.1671 9.53815 4.10174 9.41593C4.03637 9.2937 4.00156 9.15098 4.00156 8.94562V8.8536C4.00156 8.64824 4.03637 8.50551 4.10174 8.38329C4.1671 8.26107 4.26302 8.16515 4.38525 8.09978C4.50747 8.03442 4.65019 7.99961 4.85555 7.99961H4.94757ZM9.00156 1.89961C7.23425 1.89961 5.80156 3.3323 5.80156 5.09961H12.2016C12.2016 3.3323 10.7689 1.89961 9.00156 1.89961Z" fill="#FFBA00"/>
</svg>
