<svg width="18" height="18" viewBox="0 0 18 18" fill="none" xmlns="http://www.w3.org/2000/svg">
<path fill-rule="evenodd" clip-rule="evenodd" d="M8.72974 1.83583C8.91265 1.78797 9.10482 1.78806 9.28768 1.83609C9.45364 1.87968 9.63374 1.99425 10.3838 2.55445L16.5568 7.16477C16.955 7.46221 17.519 7.38048 17.8164 6.98224C18.1138 6.58399 18.0321 6.02004 17.6339 5.7226L11.4609 1.11228L11.3461 1.0264C10.7752 0.598868 10.2958 0.239842 9.74499 0.0951516C9.26288 -0.0314862 8.75627 -0.0317205 8.27405 0.0944709C7.72308 0.238652 7.24333 0.597235 6.67203 1.02424L6.55717 1.11001L0.36993 5.7221C-0.0285894 6.01917 -0.110835 6.58305 0.186229 6.98157C0.483293 7.38009 1.04718 7.46234 1.44569 7.16527L7.63294 2.55318C8.38354 1.99367 8.56375 1.87927 8.72974 1.83583ZM9.90156 7.89059C9.90156 7.39353 9.49862 6.99059 9.00156 6.99059C8.50451 6.99059 8.10156 7.39353 8.10156 7.89059V16.1004H5.90156V7.89291C5.90156 7.39585 5.49862 6.99291 5.00156 6.99291C4.50451 6.99291 4.10156 7.39585 4.10156 7.89291V16.1004H0.903906C0.40685 16.1004 0.00390625 16.5033 0.00390625 17.0004C0.00390625 17.4974 0.40685 17.9004 0.903906 17.9004H17.0992C17.5963 17.9004 17.9992 17.4974 17.9992 17.0004C17.9992 16.5033 17.5963 16.1004 17.0992 16.1004H13.9016V7.89291C13.9016 7.39585 13.4986 6.99291 13.0016 6.99291C12.5045 6.99291 12.1016 7.39585 12.1016 7.89291V16.1004H9.90156V7.89059Z" fill="#FFBA00"/>
</svg>
