<svg width="22" height="17" viewBox="0 0 22 17" fill="none" xmlns="http://www.w3.org/2000/svg">
<path fill-rule="evenodd" clip-rule="evenodd" d="M2.12687 6.78133C2.24743 6.29911 2.73607 6.00593 3.21828 6.12648L3 6.99961C3.21828 6.12648 3.21843 6.12652 3.21828 6.12648L3.22165 6.1273L3.24233 6.13226C3.26185 6.13688 3.29279 6.14408 3.3349 6.15349C3.41912 6.17231 3.54803 6.19996 3.71968 6.23354C4.063 6.30072 4.57716 6.39158 5.24659 6.48286C6.58562 6.66546 8.54481 6.84961 11 6.84961C13.4552 6.84961 15.4144 6.66546 16.7534 6.48286C17.4228 6.39158 17.937 6.30072 18.2803 6.23354C18.452 6.19996 18.5809 6.17231 18.6651 6.15349C18.7072 6.14408 18.7381 6.13688 18.7577 6.13226L18.7784 6.1273L18.7817 6.12648C18.7816 6.12652 18.7819 6.12644 18.7817 6.12648C19.2637 6.00644 19.7526 6.29937 19.8731 6.78133C19.9937 7.26354 19.7005 7.75218 19.2183 7.87274L19 6.99961C19.2183 7.87274 19.2185 7.87269 19.2183 7.87274L19.2134 7.87395L19.2041 7.87622L19.1725 7.88381C19.1456 7.89017 19.1072 7.89909 19.0576 7.91018C18.9582 7.93238 18.8137 7.96332 18.6259 8.00005C18.2505 8.0735 17.7022 8.17014 16.9966 8.26636C15.5856 8.45876 13.5448 8.64961 11 8.64961C8.45516 8.64961 6.41436 8.45876 5.00339 8.26636C4.29783 8.17014 3.74949 8.0735 3.37406 8.00005C3.18634 7.96332 3.04181 7.93238 2.94244 7.91018C2.89276 7.89909 2.85436 7.89017 2.82749 7.88381L2.79587 7.87622L2.7866 7.87395L2.78361 7.87321L2.78252 7.87294C2.78233 7.87289 2.78172 7.87274 3 6.99961L2.78252 7.87294C2.30031 7.75239 2.00632 7.26354 2.12687 6.78133ZM3.21828 6.12648C3.218 6.12641 3.2182 6.12646 3.21828 6.12648V6.12648Z" fill="#FFBA00"/>
<path d="M20 12.4996C20 13.328 19.3284 13.9996 18.5 13.9996H18V15.1996C18 15.4796 18 15.6197 18.0545 15.7266C18.1024 15.8207 18.1789 15.8972 18.273 15.9451C18.38 15.9996 18.52 15.9996 18.8 15.9996H19.2C19.48 15.9996 19.62 15.9996 19.727 15.9451C19.8211 15.8972 19.8976 15.8207 19.9455 15.7266C20 15.6197 20 15.4796 20 15.1996V12.4996Z" fill="#FFBA00"/>
<path fill-rule="evenodd" clip-rule="evenodd" d="M19.1 15.0996H18.9V14.8664C18.9677 14.8551 19.0344 14.8409 19.1 14.824V15.0996ZM20.9 12.4996V15.1996C20.9 15.2069 20.9 15.2143 20.9 15.2217C20.9 15.342 20.9001 15.4803 20.8902 15.6013C20.8788 15.7403 20.8501 15.9337 20.7474 16.1352C20.6132 16.3986 20.399 16.6128 20.1356 16.747C19.9341 16.8497 19.7407 16.8785 19.6017 16.8898C19.4806 16.8997 19.3423 16.8997 19.2221 16.8996C19.2147 16.8996 19.2073 16.8996 19.2 16.8996H18.8C18.7927 16.8996 18.7853 16.8996 18.7779 16.8996C18.6577 16.8997 18.5194 16.8997 18.3983 16.8898C18.2593 16.8785 18.0659 16.8497 17.8644 16.747C17.601 16.6128 17.3868 16.3986 17.2526 16.1352C17.1499 15.9337 17.1212 15.7403 17.1098 15.6013C17.0999 15.4803 17.1 15.3419 17.1 15.2217C17.1 15.2143 17.1 15.2069 17.1 15.1996V13.0996H18.5C18.8314 13.0996 19.1 12.831 19.1 12.4996H20.9Z" fill="#FFBA00"/>
<path d="M2 12.4996C2 13.328 2.67157 13.9996 3.5 13.9996H4V15.1996C4 15.4796 4 15.6197 3.9455 15.7266C3.89757 15.8207 3.82108 15.8972 3.727 15.9451C3.62004 15.9996 3.48003 15.9996 3.2 15.9996H2.8C2.51997 15.9996 2.37996 15.9996 2.273 15.9451C2.17892 15.8972 2.10243 15.8207 2.0545 15.7266C2 15.6197 2 15.4796 2 15.1996V12.4996Z" fill="#FFBA00"/>
<path fill-rule="evenodd" clip-rule="evenodd" d="M2.9 15.0996H3.1V14.8664C3.03233 14.8551 2.96562 14.8409 2.9 14.824V15.0996ZM1.1 12.4996V15.1996C1.1 15.2069 1.1 15.2143 1.1 15.2217C1.09996 15.342 1.09991 15.4803 1.1098 15.6013C1.12116 15.7403 1.14992 15.9337 1.25259 16.1352C1.38681 16.3986 1.60099 16.6128 1.86441 16.747C2.06591 16.8497 2.25928 16.8785 2.39831 16.8898C2.51935 16.8997 2.65766 16.8997 2.7779 16.8996C2.78534 16.8996 2.79271 16.8996 2.8 16.8996H3.2C3.20729 16.8996 3.21466 16.8996 3.2221 16.8996C3.34234 16.8997 3.48065 16.8997 3.60169 16.8898C3.74072 16.8785 3.93409 16.8497 4.13559 16.747C4.39901 16.6128 4.61319 16.3986 4.74741 16.1352C4.85008 15.9337 4.87884 15.7403 4.8902 15.6013C4.90009 15.4803 4.90004 15.3419 4.9 15.2217C4.9 15.2143 4.9 15.2069 4.9 15.1996V13.0996H3.5C3.16863 13.0996 2.9 12.831 2.9 12.4996H1.1Z" fill="#FFBA00"/>
<path fill-rule="evenodd" clip-rule="evenodd" d="M8.66232 0.09961H13.3377C14.2008 0.0995912 14.9166 0.0995755 15.5047 0.160389C16.124 0.224422 16.6776 0.361546 17.1962 0.682073C17.7149 1.0026 18.0851 1.43642 18.4193 1.96171C18.7368 2.4606 19.0569 3.10083 19.4428 3.8728L20.9 6.78716V14.8996H1.1V6.78716L2.55718 3.8728C2.94314 3.10082 3.26324 2.46059 3.58067 1.96171C3.91491 1.43642 4.28513 1.0026 4.80375 0.682073C5.32237 0.361546 5.87596 0.224422 6.49527 0.160389C7.08344 0.0995755 7.79923 0.0995912 8.66232 0.09961ZM6.68039 1.95084C6.21635 1.99882 5.9564 2.08572 5.75007 2.21324C5.54373 2.34077 5.34976 2.53441 5.09932 2.928C4.83768 3.33919 4.55833 3.89542 4.14663 4.71882L2.9 7.21208V13.0996H19.1V7.21208L17.8534 4.71882C17.4417 3.89542 17.1623 3.33919 16.9007 2.928C16.6502 2.53441 16.4563 2.34077 16.2499 2.21324C16.0436 2.08572 15.7836 1.99882 15.3196 1.95084C14.8348 1.90072 14.2124 1.89961 13.2918 1.89961H8.70821C7.78762 1.89961 7.16518 1.90072 6.68039 1.95084Z" fill="#FFBA00"/>
<path fill-rule="evenodd" clip-rule="evenodd" d="M0 6.61406V6.38478C0 5.89591 0.396302 5.49961 0.885165 5.49961H3V6.99961L2.63731 7.725C2.54886 7.9019 2.39856 8.04018 2.21493 8.11364C1.15403 8.538 0 7.75668 0 6.61406ZM22 6.61406V6.38478C22 5.89591 21.6037 5.49961 21.1148 5.49961H19V6.99961L19.3627 7.725C19.4511 7.9019 19.6014 8.04018 19.7851 8.11364C20.846 8.538 22 7.75668 22 6.61406Z" fill="#FFBA00"/>
<path fill-rule="evenodd" clip-rule="evenodd" d="M4.10695 10.388C4.1686 9.89476 4.61841 9.54491 5.11163 9.60656L7.11163 9.85656C7.60485 9.91821 7.9547 10.368 7.89305 10.8612C7.8314 11.3545 7.38159 11.7043 6.88837 11.6427L4.88837 11.3927C4.39515 11.331 4.0453 10.8812 4.10695 10.388Z" fill="#FFBA00"/>
<path fill-rule="evenodd" clip-rule="evenodd" d="M17.8931 10.388C17.8314 9.89476 17.3816 9.54491 16.8884 9.60656L14.8884 9.85656C14.3952 9.91821 14.0453 10.368 14.107 10.8612C14.1686 11.3545 14.6184 11.7043 15.1116 11.6427L17.1116 11.3927C17.6048 11.331 17.9547 10.8812 17.8931 10.388Z" fill="#FFBA00"/>
</svg>
