<svg width="16" height="21" viewBox="0 0 16 21" fill="none" xmlns="http://www.w3.org/2000/svg">
<path fill-rule="evenodd" clip-rule="evenodd" d="M8.90156 0.999609C8.90156 0.502553 8.49861 0.0996094 8.00156 0.0996094C7.5045 0.0996094 7.10156 0.502553 7.10156 0.999609V1.17427C4.80679 1.55926 3.00278 3.39157 2.66028 5.70047L2.59093 5.68934C2.4523 5.66686 2.34662 5.6483 2.27681 5.63561C2.24191 5.62927 2.21599 5.62439 2.19941 5.62122L2.18159 5.61778L2.17806 5.61709C1.69081 5.51988 1.21649 5.83585 1.11903 6.3231C1.02155 6.81051 1.33765 7.28465 1.82505 7.38213L1.82644 7.38241L1.82874 7.38287L1.83608 7.38431L1.86157 7.38923C1.88332 7.39339 1.91452 7.39925 1.95482 7.40658C2.0354 7.42123 2.15238 7.44174 2.3028 7.46613C2.56186 7.50814 2.92037 7.56171 3.36328 7.61676C3.35552 7.72669 3.35156 7.83768 3.35156 7.9496C3.35156 10.5185 5.43263 12.5996 8.00156 12.5996C10.5705 12.5996 12.6516 10.5185 12.6516 7.9496C12.6516 7.83768 12.6476 7.72669 12.6398 7.61676C13.0827 7.56171 13.4413 7.50814 13.7003 7.46613C13.8507 7.44174 13.9677 7.42123 14.0483 7.40658C14.0886 7.39925 14.1198 7.39339 14.1415 7.38923L14.167 7.38431L14.1744 7.38287L14.1767 7.38241L14.1778 7.38218C14.6652 7.2847 14.9816 6.81051 14.8841 6.3231C14.7866 5.83577 14.3126 5.51969 13.8253 5.61705L13.8215 5.61778L13.8037 5.62122C13.7871 5.62439 13.7612 5.62927 13.7263 5.63561C13.6565 5.6483 13.5508 5.66686 13.4122 5.68934L13.3428 5.70047C13.0003 3.39157 11.1963 1.55926 8.90156 1.17427V0.999609ZM7.10165 3.013C7.10881 3.50388 7.50897 3.89961 8.00156 3.89961C8.49414 3.89961 8.8943 3.50388 8.90146 3.013C10.2735 3.36611 11.3291 4.50778 11.5561 5.92611C10.5938 6.02049 9.37675 6.09961 8.00156 6.09961C6.62636 6.09961 5.40927 6.02049 4.44699 5.92611C4.67405 4.50778 5.72957 3.36611 7.10165 3.013ZM5.15575 7.79367C5.15297 7.84529 5.15156 7.89728 5.15156 7.9496C5.15156 9.52442 6.42674 10.7996 8.00156 10.7996C9.57638 10.7996 10.8516 9.52442 10.8516 7.9496C10.8516 7.89728 10.8502 7.84529 10.8474 7.79367C10.0119 7.85576 9.05063 7.89961 8.00156 7.89961C6.95249 7.89961 5.9912 7.85576 5.15575 7.79367ZM1.92925 19.0804C1.88881 19.0455 1.89106 18.9611 1.89629 18.7644C1.89863 18.6766 1.90156 18.5664 1.90156 18.4282C1.90156 16.5356 4.67976 15.3996 8.00156 15.3996C11.3234 15.3996 14.1016 16.5356 14.1016 18.4282C14.1016 18.5663 14.1045 18.6765 14.1068 18.7643C14.1121 18.9611 14.1143 19.0455 14.0739 19.0804C14.0435 19.1066 13.9892 19.1049 13.894 19.102C13.8576 19.1009 13.8154 19.0996 13.7663 19.0996H2.23686C2.18773 19.0996 2.14547 19.1009 2.10916 19.102C2.01398 19.1049 1.9596 19.1066 1.92925 19.0804ZM8.00156 13.5996C3.77435 13.5996 0.101562 15.1014 0.101562 18.4282C0.101562 20.1638 0.7871 20.8996 2.23686 20.8996H13.7663C15.216 20.8996 15.9016 20.1638 15.9016 18.4282C15.9016 15.1014 12.2288 13.5996 8.00156 13.5996Z" fill="#FFBA00"/>
</svg>
