<svg width="20" height="19" viewBox="0 0 20 19" fill="none" xmlns="http://www.w3.org/2000/svg">
<path fill-rule="evenodd" clip-rule="evenodd" d="M1.96221 5.89653L8.4171 2.22279C9.39843 1.66428 10.6015 1.66428 11.5828 2.22279L18.0377 5.89653C18.0704 5.91516 18.0795 5.92982 18.0838 5.93767C18.091 5.95047 18.0983 5.97224 18.0983 6.00082C18.0983 6.0294 18.091 6.05117 18.0838 6.06397C18.0795 6.07182 18.0704 6.08648 18.0377 6.10511L11.5828 9.77885C10.6015 10.3374 9.39843 10.3374 8.4171 9.77885L1.96221 6.10511C1.92946 6.08648 1.92043 6.07182 1.91605 6.06397C1.90891 6.05117 1.90156 6.0294 1.90156 6.00082C1.90156 5.97224 1.90891 5.95047 1.91605 5.93767C1.92043 5.92982 1.92946 5.91516 1.96221 5.89653ZM1.07186 7.66949C-0.22187 6.93318 -0.221868 5.06846 1.07186 4.33215L7.52675 0.658413C9.06007 -0.214263 10.9398 -0.214262 12.4731 0.658413L18.928 4.33215C19.5742 4.69993 19.8977 5.34924 19.8983 5.99883L19.9 6.00088V10.1009C19.9 10.5979 19.497 11.0009 19 11.0009C18.5029 11.0009 18.1 10.5979 18.1 10.1009V8.14078L12.4731 11.3432C10.9398 12.2159 9.06007 12.2159 7.52675 11.3432L1.07186 7.66949Z" fill="#F5C33C"/>
<path fill-rule="evenodd" clip-rule="evenodd" d="M15.2 8.10086V10.1093C15.2 11.5242 15.1993 12.5313 15.1349 13.3199C15.0713 14.0981 14.9502 14.5838 14.7532 14.9706C14.3601 15.7421 13.7329 16.3693 12.9614 16.7624C12.5746 16.9594 12.0888 17.0805 11.3107 17.1441C10.9314 17.1751 10.5015 17.1914 9.99996 17.1999V19.0001C10.5434 18.9911 11.0261 18.9734 11.4573 18.9381C12.3467 18.8655 13.0958 18.7141 13.7786 18.3662C14.8887 17.8005 15.7913 16.8979 16.357 15.7878C16.7049 15.105 16.8563 14.3559 16.9289 13.4665C17 12.596 17 11.5155 17 10.149V8.10086H15.2Z" fill="#F5C33C"/>
<path fill-rule="evenodd" clip-rule="evenodd" d="M4.90008 8.10086V10.1109C4.90008 11.5259 4.90078 12.533 4.96522 13.3216C5.02879 14.0997 5.14989 14.5855 5.34696 14.9722C5.74004 15.7437 6.36726 16.3709 7.13872 16.764C7.52548 16.9611 8.01128 17.0822 8.78938 17.1457C9.14323 17.1746 9.54101 17.1909 9.99996 17.1999V19.0001C9.49712 18.9906 9.04731 18.9728 8.6428 18.9398C7.75339 18.8671 7.00434 18.7157 6.32154 18.3678C5.21138 17.8022 4.3088 16.8996 3.74314 15.7894C3.39524 15.1066 3.24386 14.3576 3.17119 13.4682C3.10007 12.5977 3.10008 11.5171 3.10008 10.1506V8.10086H4.90008Z" fill="#F5C33C"/>
</svg>
