<svg width="20" height="20" viewBox="0 0 20 20" fill="none" xmlns="http://www.w3.org/2000/svg">
<path fill-rule="evenodd" clip-rule="evenodd" d="M3.6278 0.732354C3.97927 0.380882 4.54912 0.380882 4.90059 0.732354L11.2181 7.04983C11.2345 7.06625 11.2501 7.08315 11.265 7.10047H17.6685C17.6903 7.10047 17.7125 7.10041 17.735 7.10035C17.9727 7.09973 18.2465 7.09902 18.4936 7.16521C19.1492 7.3409 19.6614 7.85304 19.8371 8.50871C19.9033 8.75575 19.9025 9.02957 19.9019 9.26722C19.9019 9.28976 19.9018 9.31197 19.9018 9.33381C19.9018 9.38591 19.9018 9.43732 19.9018 9.48805C19.9021 10.8901 19.9022 11.7756 19.7008 12.5275C19.189 14.4375 17.7578 15.9552 15.9018 16.5862V17.0205C15.9018 17.0494 15.9018 17.0782 15.9019 17.1068C15.9024 17.465 15.9028 17.7997 15.8264 18.0973C15.6087 18.9452 14.9466 19.6074 14.0987 19.8251C13.801 19.9015 13.4663 19.901 13.1082 19.9005C13.0795 19.9005 13.0507 19.9005 13.0218 19.9005H6.9818C6.95287 19.9005 6.92409 19.9005 6.89545 19.9005C6.53727 19.901 6.20258 19.9015 5.90495 19.8251C5.05703 19.6074 4.39491 18.9452 4.1772 18.0973C4.10078 17.7997 4.10124 17.465 4.10172 17.1068C4.10176 17.0782 4.1018 17.0494 4.1018 17.0205V16.5862C2.24577 15.9552 0.814612 14.4375 0.302839 12.5275C0.101363 11.7756 0.101526 10.8901 0.101783 9.48808C0.101792 9.43734 0.101802 9.38592 0.101802 9.3338C0.101802 9.31197 0.101744 9.28976 0.101685 9.26722C0.101064 9.02958 0.100349 8.75575 0.166542 8.50871C0.34223 7.85304 0.854371 7.3409 1.51005 7.16521C1.75708 7.09902 2.03091 7.09973 2.26855 7.10035C2.29109 7.10041 2.3133 7.10047 2.33513 7.10047H4.48048L1.50648 4.12647C1.155 3.77499 1.155 3.20515 1.50648 2.85367C1.85795 2.5022 2.4278 2.5022 2.77927 2.85367L7.02606 7.10047H8.72312L3.6278 2.00515C3.27632 1.65367 3.27632 1.08383 3.6278 0.732354ZM7.66847 15.1005H12.3351C13.943 15.1005 14.5704 15.0927 15.063 14.9608C16.4778 14.5817 17.583 13.4765 17.9621 12.0616C18.0941 11.5691 18.1018 10.9417 18.1018 9.33381C18.1018 9.17065 18.1016 9.07831 18.0985 9.01017C18.0974 8.9876 18.0963 8.97334 18.0955 8.96551C18.0854 8.93836 18.0639 8.91691 18.0368 8.90678C18.0289 8.906 18.0147 8.90483 17.9921 8.9038C17.924 8.90069 17.8316 8.90047 17.6685 8.90047H2.33513C2.17198 8.90047 2.07964 8.90069 2.0115 8.9038C1.98893 8.90483 1.97467 8.906 1.96683 8.90678C1.93969 8.91691 1.91824 8.93836 1.90811 8.9655C1.90733 8.97334 1.90616 8.9876 1.90513 9.01017C1.90202 9.07831 1.9018 9.17065 1.9018 9.3338C1.9018 10.9417 1.90953 11.5691 2.04151 12.0616C2.42062 13.4765 3.52577 14.5817 4.94064 14.9608C5.43318 15.0927 6.06057 15.1005 7.66847 15.1005ZM5.9018 16.9005V17.0205C5.9018 17.5224 5.90893 17.604 5.92065 17.6497C5.97508 17.8617 6.14061 18.0272 6.35259 18.0816C6.39824 18.0933 6.47992 18.1005 6.9818 18.1005H13.0218C13.5237 18.1005 13.6054 18.0933 13.651 18.0816C13.863 18.0272 14.0285 17.8617 14.083 17.6497C14.0947 17.604 14.1018 17.5224 14.1018 17.0205V16.9005H12.7807C12.6861 16.9005 12.5891 16.9005 12.4894 16.9005C12.4387 16.9005 12.3873 16.9005 12.3351 16.9005H7.66847C7.61635 16.9005 7.56493 16.9005 7.51419 16.9005C7.41454 16.9005 7.31751 16.9005 7.22295 16.9005H5.9018Z" fill="#FFBA00"/>
</svg>
