<svg width="24" height="17" viewBox="0 0 24 17" fill="none" xmlns="http://www.w3.org/2000/svg">
<path d="M17.1231 0.199219C20.0274 0.199219 21.9537 2.0343 23.0158 5.07474C23.7255 7.10641 24 9.47205 24 11.8135C24 15.2205 23.1631 16.5706 20.6096 16.5706C19.3559 16.5706 18.4952 15.7772 16.972 13.8112C15.7533 12.2383 15.2902 11.7492 15.1308 11.7492H8.86923C8.67378 11.7492 8.03443 12.3652 6.83533 13.814L6.81902 13.8337C5.03705 15.987 4.43474 16.5706 3.39038 16.5706C0.836887 16.5706 0 15.2205 0 11.8135C0 9.47205 0.274526 7.10641 0.984243 5.07474C2.04635 2.0343 3.97265 0.199219 6.87692 0.199219H17.1231ZM17.1231 1.99922H6.87692C3.26947 1.99922 1.8 6.20581 1.8 11.8135C1.8 14.353 2.05888 14.7706 3.39038 14.7706C3.58155 14.7706 4.21608 14.1557 5.43231 12.6861L5.44864 12.6664C7.19929 10.5511 7.82403 9.94922 8.86923 9.94922H15.1308C16.1958 9.94922 16.5317 10.3039 18.3949 12.7087C19.5176 14.1578 20.1823 14.7706 20.6096 14.7706C21.9411 14.7706 22.2 14.353 22.2 11.8135C22.2 6.20581 20.7305 1.99922 17.1231 1.99922ZM7.14 3.7135C7.45717 3.7135 7.71429 3.97062 7.71429 4.28779L7.71371 5.4275L8.85429 5.42779C9.17145 5.42779 9.42857 5.68491 9.42857 6.00208V6.56779C9.42857 6.88496 9.17145 7.14208 8.85429 7.14208L7.71371 7.1415L7.71429 8.28208C7.71429 8.59925 7.45717 8.85636 7.14 8.85636H6.57429C6.25712 8.85636 6 8.59925 6 8.28208L5.99971 7.1415L4.86 7.14208C4.54283 7.14208 4.28571 6.88496 4.28571 6.56779V6.00208C4.28571 5.68491 4.54283 5.42779 4.86 5.42779L5.99971 5.4275L6 4.28779C6 3.97062 6.25712 3.7135 6.57429 3.7135H7.14ZM17.4257 7.14208C17.7429 7.14208 18 7.39919 18 7.71636V8.28208C18 8.59925 17.7429 8.85636 17.4257 8.85636H16.86C16.5428 8.85636 16.2857 8.59925 16.2857 8.28208V7.71636C16.2857 7.39919 16.5428 7.14208 16.86 7.14208H17.4257ZM15.7114 5.42779C16.0286 5.42779 16.2857 5.68491 16.2857 6.00208V6.56779C16.2857 6.88496 16.0286 7.14208 15.7114 7.14208H15.1457C14.8285 7.14208 14.5714 6.88496 14.5714 6.56779V6.00208C14.5714 5.68491 14.8285 5.42779 15.1457 5.42779H15.7114ZM19.14 5.42779C19.4572 5.42779 19.7143 5.68491 19.7143 6.00208V6.56779C19.7143 6.88496 19.4572 7.14208 19.14 7.14208H18.5743C18.2571 7.14208 18 6.88496 18 6.56779V6.00208C18 5.68491 18.2571 5.42779 18.5743 5.42779H19.14ZM17.4257 3.7135C17.7429 3.7135 18 3.97062 18 4.28779V4.8535C18 5.17067 17.7429 5.42779 17.4257 5.42779H16.86C16.5428 5.42779 16.2857 5.17067 16.2857 4.8535V4.28779C16.2857 3.97062 16.5428 3.7135 16.86 3.7135H17.4257Z" fill="#FFBA00"/>
</svg>
