<svg width="20" height="22" viewBox="0 0 20 22" fill="none" xmlns="http://www.w3.org/2000/svg">
<path d="M12.2986 0.433927C13.031 0.604865 13.6757 0.977107 14.1899 1.52587C14.7112 2.08218 15.0145 2.67158 15.341 3.82375L16.1318 6.76814C16.2747 7.30161 15.9581 7.84994 15.4247 7.99289C14.8912 8.13583 14.3429 7.81925 14.1999 7.28578L13.4795 4.59709L13.3669 4.19479C13.1519 3.46621 12.9903 3.17068 12.7305 2.89339C12.4866 2.63304 12.1915 2.46268 11.844 2.38158C11.474 2.29521 11.1373 2.30306 10.3988 2.48119L9.99409 2.58479L4.86662 3.95869C4.01264 4.18751 3.61288 4.3533 3.3578 4.54188L3.29687 4.58955L3.16292 4.70767C2.90257 4.95163 2.73221 5.24671 2.65111 5.59416C2.55754 5.99505 2.57456 6.35682 2.79884 7.23262L5.52232 17.4012L5.63495 17.8035C5.84992 18.5321 6.01147 18.8276 6.2713 19.1049C6.51525 19.3652 6.81034 19.5356 7.15779 19.6167C7.559 19.7104 7.9031 19.6931 8.76513 19.4766C9.30078 19.342 9.84407 19.6672 9.9786 20.2028C10.1131 20.7385 9.78796 21.2818 9.25231 21.4163C8.10349 21.7048 7.44656 21.7379 6.70319 21.5644C5.97084 21.3934 5.3261 21.0212 4.81188 20.4724C4.29061 19.9161 3.98731 19.3267 3.66086 18.1745L0.922468 7.96174C0.567837 6.63824 0.517796 5.935 0.703459 5.13956C0.855403 4.48858 1.1664 3.90683 1.63359 3.4112L1.8161 3.2294L1.99494 3.07167C2.49063 2.66003 3.07218 2.38731 4.08626 2.09926L4.34899 2.02684L9.47645 0.652937C10.8 0.298305 11.5032 0.248264 12.2986 0.433927ZM16.3693 9.99915C18.3695 9.99915 20.0009 11.5907 20.0009 13.5664C20.0009 15.4754 19.2293 16.4175 16.221 18.7001L14.8932 19.7075C14.3657 20.1078 13.6361 20.1078 13.1086 19.7075L11.7808 18.7001C8.77253 16.4175 8.00091 15.4754 8.00091 13.5664C8.00091 11.5907 9.63228 9.99915 11.6325 9.99915C12.4617 9.99915 13.2284 10.2228 13.9149 10.6588L14.0009 10.7161L14.0869 10.6588C14.7048 10.2664 15.3876 10.046 16.1225 10.0058L16.3693 9.99915Z" fill="#FFBA00"/>
</svg>
