<svg width="40" height="46" viewBox="0 0 40 46" fill="none" xmlns="http://www.w3.org/2000/svg">
<path d="M20 13.25C20.5933 13.25 21.1734 13.0741 21.6667 12.7444C22.1601 12.4148 22.5446 11.9462 22.7716 11.3981C22.9987 10.8499 23.0581 10.2467 22.9424 9.66473C22.8266 9.08279 22.5409 8.54824 22.1213 8.12868C21.7018 7.70912 21.1672 7.4234 20.5853 7.30765C20.0033 7.19189 19.4001 7.2513 18.852 7.47836C18.3038 7.70543 17.8352 8.08994 17.5056 8.58329C17.1759 9.07664 17 9.65666 17 10.25C17 11.0457 17.3161 11.8087 17.8787 12.3713C18.4413 12.9339 19.2044 13.25 20 13.25ZM20 8.75C20.2967 8.75 20.5867 8.83798 20.8334 9.0028C21.08 9.16762 21.2723 9.40189 21.3858 9.67598C21.4994 9.95007 21.5291 10.2517 21.4712 10.5426C21.4133 10.8336 21.2704 11.1009 21.0607 11.3107C20.8509 11.5204 20.5836 11.6633 20.2926 11.7212C20.0017 11.7791 19.7001 11.7494 19.426 11.6358C19.1519 11.5223 18.9176 11.33 18.7528 11.0834C18.588 10.8367 18.5 10.5467 18.5 10.25C18.5 9.85218 18.658 9.47065 18.9393 9.18934C19.2206 8.90804 19.6022 8.75 20 8.75Z" fill="#80A948"/>
<path d="M19.25 20.75H20.75V22.25H19.25V20.75Z" fill="#80A948"/>
<path d="M19.25 23.75H20.75V29H19.25V23.75Z" fill="#80A948"/>
<path d="M39.2363 41.2775C39.1665 41.1915 39.0785 41.122 38.9787 41.074C38.8788 41.026 38.7696 41.0008 38.6588 41H37.9988V20.75C37.9988 20.5511 37.9198 20.3604 37.7791 20.2197C37.6385 20.0791 37.4477 20 37.2488 20H32.5088L31.9913 16.1525C31.9763 16.0314 31.9315 15.9159 31.8608 15.8164C31.7901 15.7169 31.6958 15.6366 31.5863 15.5825L27.4688 13.52C27.1913 6.44755 20.7638 0.912549 20.4863 0.680049C20.3505 0.563852 20.1776 0.5 19.9988 0.5C19.82 0.5 19.6472 0.563852 19.5113 0.680049C19.2338 0.912549 12.8063 6.44755 12.5288 13.52L8.41131 15.5825C8.30186 15.6366 8.20754 15.7169 8.13685 15.8164C8.06616 15.9159 8.0213 16.0314 8.00631 16.1525L7.48881 20H2.74881C2.5499 20 2.35913 20.0791 2.21848 20.2197C2.07783 20.3604 1.99881 20.5511 1.99881 20.75V41H1.33881C1.22803 41.0008 1.11879 41.026 1.01893 41.074C0.919081 41.122 0.831098 41.1915 0.761307 41.2775C0.690295 41.3644 0.639902 41.4662 0.613921 41.5753C0.587939 41.6844 0.587046 41.798 0.611307 41.9075L1.26381 44.9075C1.2999 45.0756 1.39259 45.2261 1.52639 45.3339C1.66018 45.4418 1.82696 45.5004 1.99881 45.5H37.9988C38.1707 45.5004 38.3374 45.4418 38.4712 45.3339C38.605 45.2261 38.6977 45.0756 38.7338 44.9075L39.3863 41.9075C39.4106 41.798 39.4097 41.6844 39.3837 41.5753C39.3577 41.4662 39.3073 41.3644 39.2363 41.2775ZM27.4613 15.1925L30.5588 16.745L31.8938 26.75H30.2438L28.1888 21.9575C28.1314 21.822 28.0354 21.7063 27.9127 21.625C27.79 21.5436 27.646 21.5002 27.4988 21.5H26.2463C26.9633 19.4698 27.3728 17.3438 27.4613 15.1925ZM19.9988 2.27005C21.5063 3.70255 25.9988 8.46505 25.9988 14C26.0558 16.9288 25.4373 19.8314 24.1913 22.4825C23.5388 19.685 21.9338 17.75 19.9988 17.75C18.0638 17.75 16.4588 19.685 15.8063 22.4825C14.5603 19.8314 13.9418 16.9288 13.9988 14C13.9988 8.47255 18.4913 3.71005 19.9988 2.27005ZM19.9988 30.9875C19.0463 30.08 16.9988 27.815 16.9988 25.25C16.9988 21.7175 18.5813 19.25 19.9988 19.25C21.4163 19.25 22.9988 21.7175 22.9988 25.25C22.9988 27.815 20.9513 30.08 19.9988 30.9875ZM27.4988 30.5V38H12.4988V30.5H17.5463C18.1329 31.2613 18.7964 31.96 19.5263 32.585C19.6606 32.6919 19.8272 32.7501 19.9988 32.7501C20.1704 32.7501 20.337 32.6919 20.4713 32.585C21.2012 31.96 21.8647 31.2613 22.4513 30.5H27.4988ZM9.43881 16.745L12.5363 15.1925C12.6248 17.3438 13.0344 19.4698 13.7513 21.5H12.4988C12.3516 21.5002 12.2077 21.5436 12.085 21.625C11.9623 21.7063 11.8662 21.822 11.8088 21.9575L9.75381 26.75H8.10381L9.43881 16.745ZM3.49881 21.5H7.29381L6.50631 27.4025C6.4924 27.5084 6.50126 27.6161 6.5323 27.7182C6.56335 27.8204 6.61585 27.9148 6.68631 27.995C6.75599 28.0758 6.84238 28.1404 6.93951 28.1844C7.03663 28.2285 7.14217 28.2508 7.24881 28.25H10.2488C10.396 28.2499 10.54 28.2065 10.6627 28.1251C10.7853 28.0438 10.8814 27.9281 10.9388 27.7925L12.9938 23H14.3813C14.7006 23.6489 15.0797 24.2666 15.5138 24.845C15.5063 24.98 15.4988 25.115 15.4988 25.25C15.5294 26.5692 15.8932 27.8592 16.5563 29H11.7488C11.5499 29 11.3591 29.0791 11.2185 29.2197C11.0778 29.3604 10.9988 29.5511 10.9988 29.75V38.75C10.9988 38.949 11.0778 39.1397 11.2185 39.2804C11.3591 39.421 11.5499 39.5 11.7488 39.5H28.2488C28.4477 39.5 28.6385 39.421 28.7791 39.2804C28.9198 39.1397 28.9988 38.949 28.9988 38.75V29.75C28.9988 29.5511 28.9198 29.3604 28.7791 29.2197C28.6385 29.0791 28.4477 29 28.2488 29H23.4413C24.1044 27.8592 24.4682 26.5692 24.4988 25.25C24.4988 25.115 24.4913 24.98 24.4838 24.845C24.9179 24.2666 25.297 23.6489 25.6163 23H27.0038L29.0588 27.7925C29.1162 27.9281 29.2123 28.0438 29.335 28.1251C29.4577 28.2065 29.6016 28.2499 29.7488 28.25H32.7488C32.8554 28.2508 32.961 28.2285 33.0581 28.1844C33.1552 28.1404 33.2416 28.0758 33.3113 27.995C33.3818 27.9148 33.4343 27.8204 33.4653 27.7182C33.4964 27.6161 33.5052 27.5084 33.4913 27.4025L32.7038 21.5H36.4988V41H22.2488C22.0499 41 21.8591 41.0791 21.7185 41.2197C21.5778 41.3604 21.4988 41.5511 21.4988 41.75H18.4988C18.4988 41.5511 18.4198 41.3604 18.2791 41.2197C18.1385 41.0791 17.9477 41 17.7488 41H3.49881V21.5ZM37.3988 44H2.59881L2.27631 42.5H16.9988C16.9988 42.699 17.0778 42.8897 17.2185 43.0304C17.3591 43.171 17.5499 43.25 17.7488 43.25H22.2488C22.4477 43.25 22.6385 43.171 22.7791 43.0304C22.9198 42.8897 22.9988 42.699 22.9988 42.5H37.7213L37.3988 44Z" fill="#80A948"/>
<path d="M30.5 32H35V33.5H30.5V32Z" fill="#80A948"/>
<path d="M31.25 39.5H34.25C34.4489 39.5 34.6397 39.421 34.7803 39.2803C34.921 39.1397 35 38.9489 35 38.75V35.75C35 35.5511 34.921 35.3603 34.7803 35.2197C34.6397 35.079 34.4489 35 34.25 35H31.25C31.0511 35 30.8603 35.079 30.7197 35.2197C30.579 35.3603 30.5 35.5511 30.5 35.75V38.75C30.5 38.9489 30.579 39.1397 30.7197 39.2803C30.8603 39.421 31.0511 39.5 31.25 39.5ZM32 36.5H33.5V38H32V36.5Z" fill="#80A948"/>
<path d="M5 32H9.5V33.5H5V32Z" fill="#80A948"/>
<path d="M8.75 35H5.75C5.55109 35 5.36032 35.079 5.21967 35.2197C5.07902 35.3603 5 35.5511 5 35.75V38.75C5 38.9489 5.07902 39.1397 5.21967 39.2803C5.36032 39.421 5.55109 39.5 5.75 39.5H8.75C8.94891 39.5 9.13968 39.421 9.28033 39.2803C9.42098 39.1397 9.5 38.9489 9.5 38.75V35.75C9.5 35.5511 9.42098 35.3603 9.28033 35.2197C9.13968 35.079 8.94891 35 8.75 35ZM8 38H6.5V36.5H8V38Z" fill="#80A948"/>
<path d="M29 5H30.5V3.5H32V2H30.5V0.5H29V2H27.5V3.5H29V5Z" fill="#80A948"/>
<path d="M35 9.5H36.5V8H38V6.5H36.5V5H35V6.5H33.5V8H35V9.5Z" fill="#80A948"/>
<path d="M9.5 5H11V3.5H12.5V2H11V0.5H9.5V2H8V3.5H9.5V5Z" fill="#80A948"/>
<path d="M3.5 9.5H5V8H6.5V6.5H5V5H3.5V6.5H2V8H3.5V9.5Z" fill="#80A948"/>
</svg>
