<svg width="20" height="20" viewBox="0 0 20 20" fill="none" xmlns="http://www.w3.org/2000/svg">
<path d="M5.25156 13.7496H6.25156C6.66577 13.7496 7.00156 14.0854 7.00156 14.4996V15.4996C7.00156 15.9138 6.66577 16.2496 6.25156 16.2496H5.25156C4.83734 16.2496 4.50156 15.9138 4.50156 15.4996V14.4996C4.50156 14.0854 4.83734 13.7496 5.25156 13.7496Z" fill="#FFBA00"/>
<path d="M13.7516 13.7496H14.7516C15.1658 13.7496 15.5016 14.0854 15.5016 14.4996V15.4996C15.5016 15.9138 15.1658 16.2496 14.7516 16.2496H13.7516C13.3373 16.2496 13.0016 15.9138 13.0016 15.4996V14.4996C13.0016 14.0854 13.3373 13.7496 13.7516 13.7496Z" fill="#FFBA00"/>
<path d="M5.25156 8.74963H6.25156C6.66577 8.74963 7.00156 9.08542 7.00156 9.49963V10.4996C7.00156 10.9138 6.66577 11.2496 6.25156 11.2496H5.25156C4.83734 11.2496 4.50156 10.9138 4.50156 10.4996V9.49963C4.50156 9.08542 4.83734 8.74963 5.25156 8.74963Z" fill="#FFBA00"/>
<path d="M13.7516 8.74963H14.7516C15.1658 8.74963 15.5016 9.08542 15.5016 9.49963V10.4996C15.5016 10.9138 15.1658 11.2496 14.7516 11.2496H13.7516C13.3373 11.2496 13.0016 10.9138 13.0016 10.4996V9.49963C13.0016 9.08542 13.3373 8.74963 13.7516 8.74963Z" fill="#FFBA00"/>
<path d="M5.25156 3.74963H6.25156C6.66577 3.74963 7.00156 4.08542 7.00156 4.49963V5.49963C7.00156 5.91385 6.66577 6.24963 6.25156 6.24963H5.25156C4.83734 6.24963 4.50156 5.91385 4.50156 5.49963V4.49963C4.50156 4.08542 4.83734 3.74963 5.25156 3.74963Z" fill="#FFBA00"/>
<path d="M13.7516 3.74963H14.7516C15.1658 3.74963 15.5016 4.08542 15.5016 4.49963V5.49963C15.5016 5.91385 15.1658 6.24963 14.7516 6.24963H13.7516C13.3373 6.24963 13.0016 5.91385 13.0016 5.49963V4.49963C13.0016 4.08542 13.3373 3.74963 13.7516 3.74963Z" fill="#FFBA00"/>
<path fill-rule="evenodd" clip-rule="evenodd" d="M7.46287 0.0996096H12.5403C13.5575 0.0996014 14.3757 0.0995947 15.0378 0.15369C15.7188 0.209328 16.3135 0.326647 16.8626 0.60643C17.7376 1.05224 18.4489 1.7636 18.8947 2.63855C19.1745 3.18766 19.2918 3.78235 19.3475 4.46333C19.4016 5.12542 19.4016 5.94364 19.4016 6.96091V13.0383C19.4016 14.0556 19.4016 14.8738 19.3475 15.5359C19.2918 16.2169 19.1745 16.8116 18.8947 17.3607C18.4489 18.2356 17.7376 18.947 16.8626 19.3928C16.3135 19.6726 15.7188 19.7899 15.0378 19.8455C14.3757 19.8996 13.5575 19.8996 12.5403 19.8996H7.46287C6.44559 19.8996 5.62738 19.8996 4.96528 19.8455C4.2843 19.7899 3.68961 19.6726 3.14051 19.3928C2.26555 18.947 1.55419 18.2356 1.10838 17.3607C0.8286 16.8116 0.711281 16.2169 0.655643 15.5359C0.601548 14.8738 0.601554 14.0556 0.601563 13.0383V6.96091C0.601554 5.94364 0.601548 5.12542 0.655643 4.46333C0.711281 3.78235 0.8286 3.18766 1.10838 2.63855C1.55419 1.7636 2.26555 1.05224 3.14051 0.60643C3.68961 0.326647 4.2843 0.209328 4.96528 0.15369C5.62737 0.0995948 6.4456 0.0996014 7.46287 0.0996096ZM5.11186 1.94771C4.5422 1.99426 4.21075 2.0813 3.95769 2.21024C3.42143 2.48348 2.98543 2.91948 2.71219 3.45574C2.58325 3.7088 2.49621 4.04024 2.44967 4.60991C2.40226 5.19008 2.40156 5.93466 2.40156 6.99961V12.9996C2.40156 14.0646 2.40226 14.8091 2.44967 15.3893C2.49621 15.959 2.58325 16.2904 2.71219 16.5435C2.98543 17.0797 3.42143 17.5157 3.95769 17.789C4.21075 17.9179 4.5422 18.005 5.11186 18.0515C5.69203 18.0989 6.43661 18.0996 7.50156 18.0996H12.5016C13.5665 18.0996 14.3111 18.0989 14.8913 18.0515C15.4609 18.005 15.7924 17.9179 16.0454 17.789C16.5817 17.5157 17.0177 17.0797 17.2909 16.5435C17.4199 16.2904 17.5069 15.959 17.5535 15.3893C17.6009 14.8091 17.6016 14.0646 17.6016 12.9996V6.99961C17.6016 5.93466 17.6009 5.19008 17.5535 4.60991C17.5069 4.04024 17.4199 3.7088 17.2909 3.45574C17.0177 2.91948 16.5817 2.48348 16.0454 2.21024C15.7924 2.0813 15.4609 1.99426 14.8913 1.94771C14.3111 1.90031 13.5665 1.89961 12.5016 1.89961H7.50156C6.43661 1.89961 5.69203 1.90031 5.11186 1.94771Z" fill="#FFBA00"/>
</svg>
