<svg width="20" height="20" viewBox="0 0 20 20" fill="none" xmlns="http://www.w3.org/2000/svg">
<path fill-rule="evenodd" clip-rule="evenodd" d="M10.0015 13.6369L13.3016 11.7317C14.6349 10.9619 14.6349 9.03737 13.3016 8.26757L10.0015 6.3623C8.6682 5.5925 7.00153 6.55476 7.00153 8.09436L7.00153 11.9049C7.00153 13.4445 8.6682 14.4068 10.0015 13.6369ZM12.4016 9.82642C12.5349 9.9034 12.5349 10.0959 12.4016 10.1728L9.10154 12.0781C8.9682 12.1551 8.80153 12.0589 8.80153 11.9049V8.09436C8.80153 7.94039 8.9682 7.84417 9.10153 7.92115L12.4016 9.82642Z" fill="#FFBA00"/>
<path fill-rule="evenodd" clip-rule="evenodd" d="M3.00121 2.99925C4.79177 1.20869 7.268 0.0996094 10.0016 0.0996094C12.7351 0.0996094 15.2114 1.20869 17.0019 2.99925C18.7925 4.78981 19.9016 7.26605 19.9016 9.99961C19.9016 12.7332 18.7925 15.2094 17.0019 17C15.2114 18.7905 12.7351 19.8996 10.0016 19.8996C7.268 19.8996 4.79177 18.7905 3.00121 17C1.21064 15.2094 0.101562 12.7332 0.101562 9.99961C0.101562 7.26605 1.21064 4.78981 3.00121 2.99925ZM10.0016 1.89961C7.76456 1.89961 5.74079 2.80525 4.274 4.27204C2.8072 5.73884 1.90156 7.76261 1.90156 9.99961C1.90156 12.2366 2.8072 14.2604 4.274 15.7272C5.74079 17.194 7.76456 18.0996 10.0016 18.0996C12.2386 18.0996 14.2623 17.194 15.7291 15.7272C17.1959 14.2604 18.1016 12.2366 18.1016 9.99961C18.1016 7.76261 17.1959 5.73884 15.7291 4.27204C14.2623 2.80525 12.2386 1.89961 10.0016 1.89961Z" fill="#FFBA00"/>
</svg>
