<svg width="20" height="20" viewBox="0 0 20 20" fill="none" xmlns="http://www.w3.org/2000/svg">
<path fill-rule="evenodd" clip-rule="evenodd" d="M3.00121 2.99925C4.79177 1.20869 7.268 0.0996094 10.0016 0.0996094C12.7351 0.0996094 15.2114 1.20869 17.0019 2.99925C18.7925 4.78981 19.9016 7.26605 19.9016 9.99961C19.9016 12.7332 18.7925 15.2094 17.0019 17C15.2114 18.7905 12.7351 19.8996 10.0016 19.8996C7.268 19.8996 4.79177 18.7905 3.00121 17C1.21064 15.2094 0.101562 12.7332 0.101562 9.99961C0.101562 7.26605 1.21064 4.78981 3.00121 2.99925ZM10.9013 17.9996C10.9013 15.8661 10.1506 13.9079 8.89891 12.3748L10.5013 10.7724L15.591 15.8621C14.3406 17.0547 12.7111 17.8505 10.9012 18.0503L10.9013 17.9996ZM9.10133 17.9996C9.10133 16.3634 8.54786 14.8565 7.61792 13.6558L4.94547 16.3283C6.11106 17.2609 7.53889 17.8776 9.10115 18.0502L9.10133 17.9996ZM2.00133 10.8996C3.63753 10.8996 5.14447 11.4531 6.34513 12.383L3.67271 15.0554C2.74015 13.8898 2.12355 12.462 1.95097 10.8998L2.00133 10.8996ZM10.5013 8.22682L12.1037 6.6244C11.0305 5.30992 10.3256 3.68294 10.1464 1.90088C10.0982 1.90003 10.0499 1.89961 10.0016 1.89961C8.34548 1.89961 6.80627 2.39596 5.52339 3.24888L10.5013 8.22682ZM15.0574 3.67075L13.3847 5.34341C12.6766 4.42919 12.1868 3.33739 11.9934 2.14617C13.1293 2.43324 14.1694 2.96031 15.0574 3.67075ZM17.855 8.00754C16.6637 7.81416 15.5718 7.32433 14.6575 6.61621L16.3302 4.94352C17.0407 5.8315 17.5678 6.87167 17.855 8.00754ZM11.7741 9.49961L13.3765 7.89719C14.6911 8.97045 16.3181 9.67538 18.1003 9.85456C18.1011 9.90281 18.1016 9.95116 18.1016 9.99961C18.1016 11.6557 17.6052 13.1949 16.7523 14.4778L11.7741 9.49961ZM7.62612 11.102L9.22853 9.49961L4.1391 4.41017C2.94655 5.66052 2.15079 7.28994 1.95093 9.09975L2.00133 9.09961C4.13485 9.09961 6.09302 9.85033 7.62612 11.102Z" fill="#FFBA00"/>
</svg>
