<svg width="18" height="19" viewBox="0 0 18 19" fill="none" xmlns="http://www.w3.org/2000/svg">
<path d="M3.37522 5.39753C3.20121 5.48951 3.01295 5.30126 3.10493 5.12725L4.09677 3.25088L3.10493 1.37451C3.01295 1.2005 3.20121 1.01225 3.37522 1.10423L5.25159 2.09607L7.12796 1.10423C7.30196 1.01225 7.49022 1.2005 7.39824 1.37451L6.4064 3.25088L7.39824 5.12725C7.49022 5.30126 7.30196 5.48951 7.12796 5.39753L5.25159 4.40569L3.37522 5.39753Z" fill="#FFBA00"/>
<path d="M15.2516 3.90569L13.3752 4.89753C13.2012 4.98951 13.013 4.80126 13.1049 4.62725L14.0968 2.75088L13.1049 0.874509C13.013 0.700502 13.2012 0.512248 13.3752 0.604227L15.2516 1.59607L17.128 0.604227C17.302 0.512248 17.4902 0.700502 17.3982 0.874509L16.4064 2.75088L17.3982 4.62725C17.4902 4.80126 17.302 4.98951 17.128 4.89753L15.2516 3.90569Z" fill="#FFBA00"/>
<path d="M13.3752 14.3975C13.2012 14.4895 13.013 14.3013 13.1049 14.1273L14.0968 12.2509L13.1049 10.3745C13.013 10.2005 13.2012 10.0122 13.3752 10.1042L15.2516 11.0961L17.128 10.1042C17.302 10.0122 17.4902 10.2005 17.3982 10.3745L16.4064 12.2509L17.3982 14.1273C17.4902 14.3013 17.302 14.4895 17.128 14.3975L15.2516 13.4057L13.3752 14.3975Z" fill="#FFBA00"/>
<path fill-rule="evenodd" clip-rule="evenodd" d="M11.138 7.36449C11.4894 7.71596 11.4894 8.28581 11.138 8.63728L1.63796 18.1373C1.28649 18.4888 0.716638 18.4888 0.365166 18.1373C0.0136946 17.7858 0.0136945 17.216 0.365166 16.8645L9.86517 7.36449C10.2166 7.01302 10.7865 7.01302 11.138 7.36449Z" fill="#FFBA00"/>
</svg>
